<?xml version="1.0" encoding="UTF-8"?>
<svg id="Layer_1" data-name="Layer 1" xmlns="http://www.w3.org/2000/svg" viewBox="0 0 1778.89 1531.13">
  <defs>
    <style>
      .cls-1 {
        fill: #282721;
      }
    </style>
  </defs>
  <path class="cls-1" d="M1454,382.85c-.95-10.72-2.63-29.09-5.01-52.15-27.99-2.71-56.34-5.24-85.05-7.6-24.88-2.04-49.52-3.9-73.9-5.59,2.85,12.79,5.28,23.99,7.25,33.21,1.52,7.12,15.16,75.44,15.27,75.98,42.42,213.64,34.33,329.93,34.33,329.93-3.21,46.14-8.15,109.74-39.85,185.15-16.36,38.95-37.54,75.41-53.59,96.33-114.68,149.59-480.36,173.34-625.52.83-41.07-48.84-55.06-102.17-60.45-123.6-2.18-8.6-39.34-168.33,64.18-295.47,15.02-18.48,54.1-65.27,123.22-91.13,62.06-23.23,115.26-17.33,129.96-15.34,19.57,2.63,55.06,7.89,92.93,32.09,23.1,14.76,43.45,34.52,60.84,59.68,44.73,64.56,33.82,168.01-25.73,223.27-5.07,4.69-47.24,48.65-122.45,42.04-5.46-.51-12.58-1.35-20.79-3.66,0,0-9.76-2.69-19.12-7.25-17.95-8.71-32.23-23.32-39.04-31.1l-59.77,46.66c2.44,4.92,5.89,11.01,10.69,17.42,16.88,22.53,38.19,32.54,49.74,38.06,59.56,28.17,120.65,22.85,150.49,19.83,29.58-2.95,74.38-10.72,125.53-33.88,58.6-114.02,66.4-355.2,18.87-437.68-89.91-24.96-166.92-31.96-222.18-33.25-91.45-2.18-163.2,10.14-214.8,19.26-49.29,8.73-90.23,18.93-120.01,27.21-13.67,45.89-30.49,108.85-44.99,184.7-12.26,64.24-20.03,104.73-23.3,161.14-6.8,117.51,11.23,211.33,23.42,272.88,9.43,47.6,19.43,83.48,20.65,88,1.75,6.5,3.54,12.92,5.34,19.26,113.93,6,232.82,9.39,356.33,9.42,198.86.05,386.44-8.62,561.37-23.04,7.91-103.53,11.57-183.75,13.42-238.81,1.22-36.29,3.07-92.66,4.81-205.43.26-16.69.45-25.03.51-31.06.67-63.08.58-186.4-13.6-346.3Z"/>
  <path class="cls-1" d="M1273.74,424.32c-7.62-38.46-22.47-95.22-26.05-109.6-112.82-6.98-231.48-11.01-355.49-11.07-201.17-.1-389.19,10.28-562.16,27.02-7.9,103.5-11.56,183.74-13.42,238.81-1.24,36.73-3.08,92.95-4.81,205.43-.26,16.69-.45,25.03-.51,31.06-.67,63.08-.59,186.4,13.6,346.3.95,10.72,2.63,29.09,5.01,52.15,20.22,1.67,40.6,3.27,61.11,4.78,32.7,2.41,65.07,4.55,97.09,6.45-2.96-14.34-21.64-106.55-21.78-107.21-42.42-213.64-34.33-329.93-34.33-329.93,3.21-46.14,8.15-109.74,39.85-185.15,16.36-38.95,37.54-75.41,53.59-96.33,114.68-149.59,480.36-173.34,625.52-.83,41.07,48.84,55.06,102.17,60.45,123.6,2.18,8.6,39.34,168.33-64.17,295.47-15.02,18.48-54.1,65.27-123.22,91.13-62.06,23.23-115.26,17.33-129.95,15.34-19.57-2.63-55.06-7.89-92.93-32.09-23.1-14.76-43.45-34.52-60.84-59.68-44.73-64.56-33.82-168.01,25.73-223.27,5.07-4.68,47.23-48.65,122.45-42.04,5.46.51,12.58,1.35,20.79,3.66,0,0,9.76,2.7,19.12,7.25,17.96,8.71,32.24,23.34,39.05,31.11l59.76-46.66c-2.44-4.92-5.9-11.02-10.7-17.44-16.88-22.53-38.18-32.54-49.73-38.06-59.56-28.17-120.65-22.85-150.5-19.83-29.58,2.95-74.38,10.72-125.53,33.88-58.32,113.46-66.68,354.71-18.87,437.68,89.91,24.96,166.92,31.96,222.18,33.25,91.45,2.18,163.2-10.14,214.8-19.26,49.29-8.73,90.23-18.93,120.01-27.21,13.67-45.89,30.48-108.85,44.99-184.7,12.26-64.24,20.03-104.73,23.3-161.14,6.8-117.51-11.23-211.33-23.43-272.88Z"/>
</svg>